<svg id="SvgjsSvg1001" width="288" height="288" xmlns="http://www.w3.org/2000/svg" version="1.1" xmlns:xlink="http://www.w3.org/1999/xlink" xmlns:svgjs="http://svgjs.com/svgjs"><defs id="SvgjsDefs1002"></defs><g id="SvgjsG1008" transform="matrix(1,0,0,1,0,0)"><svg xmlns="http://www.w3.org/2000/svg" width="288" height="288" version="1.0" viewBox="0 0 500 500"><g transform="matrix(.1 0 0 -.1 0 500)" fill="#1b3b6b" class="color000 svgShape"><path d="M0 2500 l0 -2500 2500 0 2500 0 0 2500 0 2500 -2500 0 -2500 0 0-2500z m3720 535 l0 -1275 -1270 0 -1270 0 0 1268 c0 698 3 1272 7 1275 3 4
575 7 1270 7 l1263 0 0 -1275z m-915 -1432 l70 -19 3 -122 3 -122 -26 0 c-19
0 -25 5 -25 21 0 38 -53 120 -95 148 -114 77 -221 77 -309 0 -93 -82 -136
-230 -118 -402 23 -206 104 -333 221 -345 58 -5 109 10 145 43 25 23 26 29 26
124 0 114 -6 123 -85 136 -66 11 -75 15 -75 36 0 18 9 19 230 19 222 0 230 -1
230 -20 0 -14 -11 -22 -42 -31 -68 -18 -68 -18 -68 -159 l0 -128 -72 -30
c-121 -50 -259 -70 -358 -52 -95 17 -163 52 -229 117 -184 185 -188 501 -7
678 53 51 152 107 222 124 61 16 278 6 359 -16z m835 9 l65 -17 3 -123 c3
-120 2 -123 -18 -120 -15 2 -28 20 -45 63 -53 133 -202 190 -311 118 -52 -34
-70 -118 -38 -173 19 -31 94 -79 172 -109 203 -79 271 -157 260 -296 -10 -114
-75 -190 -206 -238 -83 -30 -247 -28 -357 4 l-80 24 -12 100 c-16 146 -17 145
10 145 17 0 26 -11 40 -45 42 -100 154 -185 246 -185 57 0 127 34 153 74 15
24 18 44 15 85 -3 47 -9 59 -39 86 -19 18 -72 47 -119 65 -217 83 -289 154
-289 284 0 119 74 206 217 255 75 26 238 27 333 3z m-2062 -2 c34 0 42 -3 42
-19 0 -14 -12 -22 -45 -30 -25 -6 -48 -18 -51 -26 -6 -13 163 -325 176 -325 4
0 46 71 94 157 l88 157 -22 18 c-12 9 -37 20 -56 24 -24 4 -34 12 -34 25 0 21
-7 20 150 20 188 0 180 1 180 -21 0 -14 -9 -21 -35 -26 -57 -10 -98 -60 -214
-259 l-111 -189 0 -144 0 -144 29 -29 c16 -16 40 -29 53 -29 43 0 68 -12 68
-31 0 -18 -12 -19 -250 -19 -238 0 -250 1 -250 19 0 18 25 31 63 31 11 0 34 7
53 16 l34 16 0 154 0 153 -115 198 c-119 205 -153 247 -211 258 -24 4 -34 11
-34 25 0 23 32 26 225 23 72 -1 149 -3 173 -3z" fill="#1b3b6b" class="color000 svgShape"></path><path d="M1570 3840 c0 -37 2 -39 38 -45 98 -16 166 -59 221 -139 16 -23 123
-204 240 -403 l211 -362 0 -290 0 -290 -35 -26 c-42 -33 -108 -53 -197 -62
l-68 -6 0 -43 0 -44 469 0 c258 0 476 3 485 6 11 4 16 19 16 44 l0 37 -62 6
c-81 8 -145 31 -181 65 -56 53 -57 59 -57 351 l0 269 111 189 c62 103 157 265
212 358 55 94 115 191 133 216 44 60 100 96 180 116 l64 16 0 38 0 39 -310 0
-310 0 0 -39 0 -38 58 -12 c61 -12 129 -46 145 -72 8 -13 -28 -84 -168 -330
-97 -173 -180 -316 -183 -319 -2 -3 -6 0 -9 6 -4 11 -87 160 -265 474 -99 174
-100 175 -79 191 28 23 95 46 154 54 l47 6 0 40 0 39 -430 0 -430 0 0 -40z" fill="#1b3b6b" class="color000 svgShape"></path></g></svg></g></svg>